<svg xmlns="http://www.w3.org/2000/svg" xmlns:xlink="http://www.w3.org/1999/xlink" aria-hidden="true" role="img"
     class="iconify iconify--logos"
     width="33.52"
     height="33.52"
     preserveAspectRatio="xMidYMid meet"
     viewBox="0 0 678 678">
        <rect fill="#26448C"
              transform="matrix(0.723564 0.723564 -0.723564 0.723564 338.799 -1.55385E-05)"
              width="139.66"
              height="139.66"/>
        <rect fill="#E31E24"
              transform="matrix(0.723564 0.723564 -0.723564 0.723564 219.925 118.873)"
              width="139.66"
              height="139.66"/>
        <rect fill="#E31E24"
              transform="matrix(0.723564 0.723564 -0.723564 0.723564 101.052 237.747)"
              width="139.66"
              height="139.66"/>
        <rect fill="#26448C"
              transform="matrix(0.723564 0.723564 -0.723564 0.723564 576.546 237.747)"
              width="139.66"
              height="139.66"/>
        <rect fill="#26448C"
              transform="matrix(0.723564 0.723564 -0.723564 0.723564 457.672 356.62)"
              width="139.66"
              height="139.66"/>
        <rect fill="#26448C"
              transform="matrix(0.723564 0.723564 -0.723564 0.723564 338.799 475.494)"
              width="139.66"
              height="139.66"/>
        <rect fill="#26448C"
              transform="matrix(0.723564 0.723564 -0.723564 0.723564 457.672 118.873)"
              width="139.66"
              height="139.66"/>
        <rect fill="#E31E24"
              transform="matrix(0.723564 0.723564 -0.723564 0.723564 219.925 356.62)"
              width="139.66"
              height="139.66"/>
</svg>
